<svg height="546" width="614" xmlns="http://www.w3.org/2000/svg">
 <!-- Created with Image Occlusion Enhanced -->
 <g>
  <title>Labels</title>
  <path d="m405.19644,284.35712c0,0 0.20135,-0.40723 -0.22324,-0.66965c-0.18988,-0.11734 -0.55493,-0.18387 -0.66962,-0.66962c-0.0513,-0.21725 -0.13782,-0.24023 -0.22324,-0.44644c-0.12079,-0.29163 -0.82422,-0.93439 -1.11606,-1.33929c-0.55371,-0.76828 -0.71161,-1.34506 -1.78571,-2.00891c-0.60046,-0.37112 -0.93729,-0.56528 -1.5625,-0.89285c-0.98862,-0.51797 -1.17337,-1.20959 -2.23215,-1.5625c-0.21179,-0.07059 -0.89285,-0.22324 -1.33929,-0.44644c-1.33929,-0.66962 -1.9696,-0.77817 -2.45535,-0.89285c-0.21722,-0.05127 -1.79764,-0.12064 -2.23215,-0.22321c-0.48578,-0.11469 -0.89285,-0.22324 -1.11606,-0.22324c-0.44644,0 -1.11609,-0.22321 -1.33929,-0.22321c-0.22321,0 -0.86575,-0.11014 -1.5625,-0.22321c-0.44067,-0.0715 -1.11609,0 -1.33929,0c-0.22321,0 -1.11606,0 -2.00891,0c-0.22324,0 -0.66965,0 -0.89288,0c-0.22321,0 -0.66962,0 -1.33926,0c-0.22324,0 -0.66965,0 -0.89285,0c-0.22324,0 -0.66965,0 -1.11609,0c-0.66965,0 -1.33929,0 -2.00891,0c-0.66965,0 -1.31219,0.33334 -2.00894,0.44641c-0.66101,0.10727 -0.87225,0.11078 -1.78571,0.22324c-0.44308,0.05457 -1.56326,0.42801 -1.78574,0.44641c-1.35312,0.112 -1.84164,0.19904 -3.34821,0.66965c-0.95285,0.29764 -1.32993,0.47562 -2.67856,0.89285c-1.55243,0.48026 -2.01297,0.62744 -2.23215,0.66965c-1.18039,0.22733 -1.35965,0.62405 -2.90179,1.33929c-0.45279,0.20999 -1.62787,0.73502 -1.78571,0.89285c-0.15784,0.15784 -1.05957,0.5293 -2.00894,1.11606c-0.84915,0.52481 -1.11606,0.66965 -1.78571,0.89285c0,0 -0.51181,0.2886 -0.66965,0.44644c-0.15784,0.15784 -0.32907,0.03333 -0.44641,0.22321c-0.26242,0.42459 -0.37802,0.32565 -0.66965,0.44644c-0.20624,0.08542 -0.66965,0.44641 -0.89285,0.44641c0,0 -0.2886,-0.15784 -0.44644,0c-0.15784,0.15784 -0.44644,0.44644 -0.44644,0.44644c-0.22321,0 -0.44641,0.22321 -0.44641,0.22321c-0.22321,0 -0.66965,0.22324 -0.66965,0.22324c0,0.22321 -0.22321,0.22321 -0.22321,0.22321c-0.22324,0 -0.22324,0.22321 -0.22324,0.22321c-0.22321,0 -0.22321,0.22321 -0.22321,0.22321c-0.22321,0 -0.22321,0 -0.22321,0c-0.22321,0.22324 -0.22321,0.22324 -0.22321,0.22324c0,0 0,0 0,0c0,0 0.22321,0 0.22321,0c0,0 0.22321,0 0.22321,0c0,0 0,0 0.22321,0c0,0 0,0 0.22324,0c0,0 0.06537,-0.15784 0.22321,0c0.15784,0.15784 0,0.22321 0,0.22321c0.22321,0 0.22321,0 0.22321,0c0,0 0.22324,0 0.22324,0.22321c0,0 0.06537,0.0654 0.22321,0.22324c0.15784,0.15784 0.06537,0.06537 0.22321,0.22321c0.15784,0.15784 0.22321,0 0.22321,0c0,0 0,0 0.22324,0.22321c0,0 0,0 0.22321,0.22321c0,0 0.06537,0.0654 0.22321,0.22324c0.15784,0.15784 0.22324,0.22321 0.44644,0.22321c0,0 0.22321,0.22321 0.22321,0.22321c0,0 0.22321,0.22324 0.22321,0.22324c0.22324,0 0.44644,0.22321 0.44644,0.22321c0,0 0.2402,0.13779 0.44644,0.22321c0.29163,0.12079 0.15475,0.32562 0.44641,0.44644c0.20621,0.08542 0.48041,0.05237 0.89285,0.22321c0.58331,0.24161 0.64255,0.55658 1.33929,0.66965c0.22034,0.03577 1.11606,0.44641 1.33929,0.44641c0.22321,0 0.40707,0.33176 0.89285,0.44644c0.21722,0.05127 0.57718,-0.09247 0.89285,0.22321c0.15784,0.15784 0.44644,0.22324 0.66965,0.44644c0,0 0.22321,0 0.22321,0c0.22321,0.22321 0.22321,0.22321 0.44644,0.22321c0.22321,0 0.22321,0.22321 0.44641,0.22321c0,0 0.15479,0.10242 0.44644,0.22324c0.20621,0.08542 0.45239,0.17191 0.66965,0.22321c0.48575,0.11469 0.68665,0.36102 0.89285,0.44644c0.29163,0.12079 0.28857,0.28857 0.44641,0.44641c0.15784,0.15784 0.22324,0 0.44644,0.22321c0,0 0,0 0.22321,0.22324c0,0 0,0 0,0c0.22324,0 0.0654,0.06537 0.22324,0.22321c0.15784,0.15784 0.22321,0 0.22321,0c0,0 0,0 0.22321,0c0,0 0,0 0,0c0,0 0,0 -0.22321,0c0,0 -0.22321,0 -0.22321,0c-0.44644,-0.22321 -0.51181,-0.2886 -0.66965,-0.44644c-0.15784,-0.15784 -0.37802,-0.10242 -0.66965,-0.22321c-0.20621,-0.08542 -0.44644,-0.22321 -0.66965,-0.22321c-0.22321,0 -0.22321,-0.22321 -0.44644,-0.22321c0,0 -0.22321,0 -0.44641,-0.22324c0,0 -0.44644,0 -0.44644,0c-0.22321,0 -0.18387,-0.10852 -0.66965,-0.22321c-0.21722,-0.05127 -0.15479,-0.10242 -0.44641,-0.22321c-0.20621,-0.08542 -0.22919,0.0513 -0.44644,0c-0.48575,-0.11469 -0.44641,-0.22324 -0.66965,-0.22324c0,0 -0.22321,0 -0.22321,0c-0.22321,0 -0.22321,-0.22321 -0.22321,-0.22321c-0.22321,0 -0.37802,-0.10242 -0.66965,-0.22321c-0.20621,-0.08542 -0.37802,-0.10242 -0.66965,-0.22321c-0.20621,-0.08542 -0.44641,-0.22324 -0.66965,-0.22324c0,0 -0.22321,0 -0.44641,0c0,0 0,-0.22321 -0.22324,-0.22321c-0.22321,0 -0.44641,0 -0.44641,0c0,-0.22321 -0.22321,-0.22321 -0.22321,-0.22321c-0.22324,0 -0.15479,-0.10242 -0.44644,-0.22324c-0.20621,-0.08542 -0.37802,-0.10242 -0.66965,-0.22321c-0.20621,-0.08542 -0.22321,0 -0.44641,0c0,0 -0.22324,0 -0.22324,0c0,0 -0.22321,-0.22321 -0.22321,-0.22321c-0.22321,0 -0.22321,0 -0.44644,-0.22321c0,0 0,0 -0.22321,0c0,0 -0.06537,-0.0654 -0.22321,-0.22324c-0.15784,-0.15784 -0.51181,0.15784 -0.66965,0c-0.15784,-0.15784 -0.2886,-0.06537 -0.44644,-0.22321c-0.15784,-0.15784 -0.22321,-0.22321 -0.22321,-0.22321c-0.44641,0 -0.66965,-0.22324 -0.66965,-0.22324c-0.22321,0 -0.15479,-0.10242 -0.44641,-0.22321c-0.20624,-0.08542 -0.15482,-0.10242 -0.44644,-0.22321c-0.20621,-0.08542 -0.28857,-0.06537 -0.44641,-0.22321c-0.15784,-0.15784 -0.22324,0 -0.22324,0c0,0 -0.22321,0 -0.22321,0c0,0 -0.22321,-0.22324 -0.22321,-0.22324c0,0 -0.22324,0 -0.22324,0c0,0 0,0 0,0c-0.22321,0 -0.22321,0 -0.22321,-0.22321c0,0 0,0 0,0c0,-0.22321 -0.22321,-0.22321 -0.22321,-0.22321c0,0 0,-0.22324 0,-0.22324c0,0 -0.06537,0.15784 -0.22321,0c-0.15784,-0.15784 0,-0.22321 0,-0.22321c0,-0.22321 0,-0.22321 0,-0.22321c0,0 0,-0.22321 0,-0.22321c0,0 0,0 0,-0.22324c0,0 0,-0.22321 0,-0.44641c0,-0.22324 0,-0.22324 0,-0.66965c0,-0.22321 0,-0.22321 0,-0.66965c0,-0.22321 0,-0.22321 0,-0.66965c0,0 0,-0.22321 0,-0.44641c0,-0.22324 0,-0.22324 0,-0.66965c0,0 0,-0.22324 0,-0.44644c0,-0.22321 0,-0.44641 0,-0.44641c0,-0.44644 0,-0.44644 0,-0.66965c0,-0.22324 0.10242,-0.15482 0.22321,-0.44644c0.08542,-0.20621 0,-0.22321 0,-0.44641c0,0 0,0 0,-0.22324c0,0 0,-0.22321 0,-0.44641c0,-0.22324 0,-0.22324 0,-0.66965c0,0 -0.15784,-0.51181 0,-0.66965c0.15784,-0.15784 0.22321,-0.44644 0.22321,-0.44644c0,-0.22321 0,-0.22321 0,-0.44641c0,-0.22321 0,-0.22321 0,-0.44644c0,0 0,-0.22321 0,-0.44641c0,-0.22324 0,-0.22324 0,-0.22324c0,-0.22321 0,-0.22321 0,-0.44641c0,0 0,-0.22321 0,-0.22321c0,-0.22324 0,-0.22324 0,-0.44644c0,-0.22321 0,-0.44644 0,-0.66965c0,-0.22321 0,-0.44641 0,-0.44641c0,-0.22324 0,-0.66965 0,-0.89288c0,-0.44641 0,-0.66962 0,-1.11606c0,-0.22321 0,-0.66965 0,-0.66965c0,-0.22321 0,-0.66965 0,-0.66965c0,-0.22321 0,-0.44641 0,-0.66965c0,-0.22321 0,-0.22321 0,-0.66962c0,0 0,-0.22324 0,-0.22324c0,0 0,-0.22321 0,-0.22321c0,0 0,-0.22321 0,-0.22321c0,-0.22324 0,-0.22324 0,-0.44644c0,-0.22321 0,-0.22321 0,-0.22321c0,0 0,-0.22321 0,-0.22321c0,0 0,0 0,0.22321c0,0 0,0.22321 0,0.22321c0,0.22321 0,0.22321 0,0.22321c0,0.22324 0,0.22324 0,0.44644c0,0 0,0.22321 0,0.22321c0,0 0,0.22324 0,0.22324c0,0 0,0.22321 0,0.22321c0,0 0,0.22321 0,0.22321c0,0 0,0.22321 0,0.22321c0,0.22324 0,0.22324 0,0.22324c0,0 0,0.22321 0,0.22321c0,0 0,0 0,0.22321c0,0 0,0 0,0.22324c0,0 0,0.22321 0,0.22321c0,0 0,0 0,-0.22321c0,-0.22324 0,-0.44644 0,-0.44644c0,-0.44644 0,-0.66965 0,-0.66965c0,-0.44641 0,-0.44641 0,-0.89285c0,0 0,-0.44644 0,-0.44644c0,-0.22321 0,-0.22321 0,-0.22321c0,0 0,-0.22321 0,-0.22321c0,0 0,0.22321 0,0.44641c0,0.66965 0,1.11609 0,1.11609c0,0.44641 0,0.66965 0,0.89285c0,0 0,0.22321 0,0.22321c0,0.22324 0,0.22324 0,0.22324c0,0.22321 0,0.22321 0,0.22321c0,0 0,0.22321 0,0c0,0 0,-0.22321 0,-0.44644c0,-0.44641 0.11075,-0.42584 0.22321,-1.33926c0.02728,-0.22156 0,-0.89288 0,-1.11609c0,-0.89285 0,-1.11606 0,-1.33929c0,-0.22321 0,-0.22321 0,0c0,0.66965 0,0.89288 0,1.5625c0,0.22324 -0.22321,0.66965 -0.22321,0.89288c0,0.22321 0,0.44641 0,0.66962c0,0 0,0 0,0.22324c0,0 0,0.22321 0,0.22321c0,0 0,0 0,0.22321c0,0 0,0.44644 0,0.44644c0,0.22321 0,0.22321 0,0.22321c0,0.22321 0,0.44644 0,0.44644c0,0.22321 0,0.44641 0,0.66965c0,0.22321 0,0.44641 0,0.44641c0,0.22321 0,0.44644 0,0.66965c0,0.22321 0,0.44644 0,0.44644c0,0.22321 0,0.22321 0,0.22321c-0.22321,0.22321 -0.22321,0.22321 -0.22321,0.22321c0,0.22321 0,0.22321 0,0.44644c0,0 0.03577,0.22607 0,0.44641c-0.11307,0.69675 -0.22321,1.11609 -0.22321,1.33929c0,0.44644 -0.22324,0.66965 -0.22324,0.89285c0,0 0,0.22321 0,0.22321c0,0.22324 0,0.22324 0,0.22324c0,0.22321 0,0.22321 0,0.22321c0,0.22321 0,0.22321 0,0.22321c0,0.22324 0,0.22324 0,0.22324c0,0 0,0.22321 0,0.22321c0,0 0,0.22321 0,0.22321c0,0.22321 0,0.22321 0,0.22321c0,0.22324 0,0.22324 0,0.22324c0,0.22321 0,0.22321 0,0.66965c0,0 0,0.44641 0,0.44641c0,0.22321 -0.06537,0.51181 -0.22321,0.66965c-0.31567,0.31567 0,0.66965 0,0.89285c0,0 0,0.22321 0,0.44644c0,0 0,0.22321 0,0.22321c0,0.22321 0,0.44644 0,0.66965c0,0 0,0 0,0.22321c0,0 0,0 0,0c0,0.22321 0,0.22321 0,0.22321c0,0.22324 0,0.22324 0,0.44644c0,0 0,0 0,0c0,0.22321 0,0.22321 0,0.44644c0,0 0,0.22321 0,0.22321c0,0.22321 0,0.22321 0,0.22321c0,0.22321 0,0.22321 0,0.22321c0,0 0,0.22324 0,0.22324c0,0 0,0 0,0.22321l0,0" fill="none" id="svg_3" stroke="#2D2D2D" stroke-width="3"/>
 </g>
 <g>
  <title>Masks</title>
  <rect fill="#007fff" height="52" id="769c0dfd33ab4f11a2aaf21179dae2a4-ao-1" stroke="#2D2D2D" width="190" x="375" y="292"/>
 </g>
</svg>