<svg height="342" width="444.00000000000006" xmlns="http://www.w3.org/2000/svg">
 <!-- Created with Image Occlusion Enhanced -->
 <g>
  <title>Labels</title>
  <path d="m73.60565,314.33801c-0.70422,0 -1.51478,1.10239 -2.8169,-0.70422c-0.41177,-0.57129 -0.70422,-0.70422 -0.70422,-0.70422c-1.40845,-2.81689 -1.20712,-2.96597 -2.8169,-4.9296c-0.63141,-0.7702 -2.11268,-3.52112 -2.8169,-5.63379c0,0 -1.40845,-1.40845 -1.40845,-1.40845c0,-0.70422 -0.20626,-1.61472 -0.70423,-2.11267c-0.49796,-0.49796 -0.70422,-1.40845 -0.70422,-2.11267c0,0 0,0 0,0c0,0 0,0 0,-0.70425c0,0 0,0 0,0c0,0 0,-0.70422 -0.70423,-0.70422c0,0 0,0 0,0c0,0 0,0.70422 0,1.40848c0,0.70422 -0.57105,1.42114 -0.70422,2.11267c-0.71717,3.72394 -1.40845,4.22534 -1.40845,3.52112c0,0 0,0 0,-0.70422c0,0 0.3231,0.21588 0.70422,-0.70422c0.26949,-0.6506 0,-0.70422 0,-1.40845c0,0 0,0 0.70423,-0.70422c0,0 0,0 0,0c0,0 0,-0.70422 0,-1.40845c0,0 0,0 0,-0.70422c0,0 0,0 0,0c0.70422,0 0.70422,0 0.70422,0c0,0 0.70423,0 1.40845,0c0.70423,0 1.46206,0.43472 2.11268,0.70422c0.92011,0.38113 1.40845,0.70422 1.40845,0.70422c0,0 0,0 0.70422,0c0,0 -0.49796,0.20627 0,0.70422c0.49796,0.49796 0.70423,0 0.70423,0c0,0 0,0 0.70422,0c0,0 0,0 0,0l0,0l0,0" fill="none" id="svg_9" stroke="#2D2D2D" stroke-dasharray="null" stroke-linecap="null" stroke-linejoin="null" stroke-width="null"/>
  <path d="m184.16904,319.91119c-0.6707,0 -1.44264,1.30301 -2.68275,-0.8324c-0.39217,-0.67526 -0.6707,-0.8324 -0.6707,-0.8324c-1.34138,-3.32956 -1.14964,-3.50577 -2.68279,-5.82675c-0.60132,-0.91037 -2.01205,-4.16196 -2.68275,-6.65912c0,0 -1.34137,-1.66479 -1.34137,-1.66479c0,-0.8324 -0.19646,-1.90857 -0.67072,-2.49716c-0.47423,-0.58859 -0.67067,-1.66479 -0.67067,-2.49716c0,0 0,0 0,0c0,0 0,0 0,-0.83243c0,0 0,0 0,0c0,0 0,-0.8324 -0.67068,-0.8324c0,0 0,0 0,0c0,0 0,0.8324 0,1.66483c0,0.83237 -0.54387,1.67978 -0.67068,2.49716c-0.68303,4.40167 -1.34138,4.99435 -1.34138,4.16196c0,0 0,0 0,-0.8324c0,0 0.30771,0.25516 0.67068,-0.8324c0.25665,-0.76901 0,-0.8324 0,-1.66476c0,0 0,0 0.6707,-0.8324c0,0 0,0 0,0c0,0 0,-0.8324 0,-1.66479c0,0 0,0 0,-0.83237c0,0 0,0 0,0c0.67068,0 0.67068,0 0.67068,0c0,0 0.67068,0 1.34135,0c0.67072,0 1.39246,0.51382 2.01208,0.83237c0.8763,0.4505 1.3414,0.8324 1.3414,0.8324c0,0 0,0 0.67067,0c0,0 -0.47424,0.2438 0,0.8324c0.47427,0.58859 0.67068,0 0.67068,0c0,0 0,0 0.67072,0c0,0 0,0 0,0l0,0l0,0" fill="none" id="svg_11" stroke="#2D2D2D" stroke-dasharray="null" stroke-linecap="null" stroke-linejoin="null" stroke-width="null" transform="rotate(58.2421 177.127 308.871)"/>
 </g>
 <g>
  <title>Masks</title>
  <rect fill="#007fff" height="57.04226" id="cdfb63fffa4a46f39eaddc8d3864ad61-ao-1" stroke="#2D2D2D" width="197.18311" x="215.85917" y="166.45068"/>
  <rect fill="#007fff" height="57.04226" id="cdfb63fffa4a46f39eaddc8d3864ad61-ao-2" stroke="#2D2D2D" width="89.43662" x="76.42255" y="269.26758"/>
  <rect fill="#007fff" height="57.04226" id="cdfb63fffa4a46f39eaddc8d3864ad61-ao-3" stroke="#2D2D2D" width="197.18311" x="215.15495" y="231.23942"/>
  <rect fill="#007fff" height="57.04226" id="cdfb63fffa4a46f39eaddc8d3864ad61-ao-4" stroke="#2D2D2D" width="197.18311" x="215.85917" y="31.94364"/>
  <rect fill="#007fff" height="57.04226" id="cdfb63fffa4a46f39eaddc8d3864ad61-ao-5" stroke="#2D2D2D" width="197.18311" x="217.97185" y="101.66194"/>
 </g>
</svg>